<?xml version="1.0" standalone="no"?><!DOCTYPE svg PUBLIC "-//W3C//DTD SVG 1.1//EN" "http://www.w3.org/Graphics/SVG/1.1/DTD/svg11.dtd"><svg t="1682776296205" class="icon" viewBox="0 0 1024 1024" version="1.1" xmlns="http://www.w3.org/2000/svg" p-id="4251" xmlns:xlink="http://www.w3.org/1999/xlink" width="200" height="200"><path d="M342.956832 429.694885a21.452894 21.452894 0 0 1-17.215915-8.687957c-17.001916-22.793888-38.61581-34.699829-62.535692-34.699829a83.612588 83.612588 0 0 0-65.913676 34.967828 21.452894 21.452894 0 0 1-34.431831-25.635874 126.679376 126.679376 0 0 1 100.292507-52.238743c37.541815 0 71.919646 18.609908 96.913523 52.238743a21.452894 21.452894 0 0 1-17.215915 34.216831z m337.936337 0a21.452894 21.452894 0 0 1-16.089921-35.772824 135.582333 135.582333 0 0 1 98.093517-45.157778c35.987823 0 69.239659 15.177925 96.538525 44.72978a21.452894 21.452894 0 0 1-31.481845 29.174857c-18.932907-20.2729-40.5458-30.999847-64.036685-30.999848h-0.697996a93.641539 93.641539 0 0 0-66.342674 30.731849 21.452894 21.452894 0 0 1-15.982921 7.293964z m-171.409157 230.135867h-5.898971c-83.129591-3.002985-139.443314-69.453658-141.535303-72.242644a21.452894 21.452894 0 0 1 32.983838-27.459865c0.643997 0.750996 46.82077 54.705731 110.482456 56.84972 40.116803 1.341993 79.912607-18.126911 117.991419-57.975714a21.452894 21.452894 0 1 1 30.945848 29.712853c-45.373777 46.927769-94.125537 71.11565-144.969287 71.11565z" fill="#1296db" p-id="4252"></path><path d="M176.481651 838.104875a21.452894 21.452894 0 0 1-15.337924-6.649967 489.71559 489.71559 0 1 1 840.523863-341.531319A487.141602 487.141602 0 0 1 863.189271 831.185909a21.452894 21.452894 0 0 1-30.784848-29.926853 446.809801 446.809801 0 1 0-640.529847 0.429998 21.452894 21.452894 0 0 1-15.391925 36.415821z m335.470349 141.535303a494.167568 494.167568 0 0 1-84.470584-7.239964 21.452894 21.452894 0 1 1 7.346964-42.262792 451.422778 451.422778 0 0 0 77.12362 6.596968 390.550078 390.550078 0 0 0 77.444619-7.669963 21.452894 21.452894 0 0 1 7.883961 42.155793 435.707856 435.707856 0 0 1-85.32858 8.419958z" fill="#1296db" p-id="4253"></path><path d="M241.538331 1023.99396a21.452894 21.452894 0 0 1-19.361905-30.677849c1.233994-2.627987 10.726947-24.992877-5.95297-38.882809s-43.549786-24.40288-62.534692-31.643844a150.706258 150.706258 0 0 1-27.513865-12.280939c-19.039906-12.549938-33.949833-39.312807-25.581874-66.182675 6.917966-22.149891 30.623849-48.269762 103.885489-46.927769 12.978936-0.375998 151.135256 0 254.645746 163.202197l0.589997 1.019995c2.305989 4.07498 9.224955 19.574904 2.251989 46.337772a21.452894 21.452894 0 0 1-41.510795-10.726947 34.59283 34.59283 0 0 0 1.286993-15.284925c-92.300546-143.734293-211.25696-141.589303-216.298935-141.481304h-1.232994c-45.051778-0.804996-60.551702 10.13595-62.589692 16.786918-1.769991 5.684972 2.949985 14.15893 8.259959 17.644913a175.109138 175.109138 0 0 0 19.199906 7.989961c21.774893 8.259959 51.594746 19.629903 74.602633 38.669809 34.59283 28.639859 26.44087 71.759647 17.269915 90.531555a21.452894 21.452894 0 0 1-19.414905 11.905941z m180.687111-41.511796l0.749996 1.179995z m0 0z m160.41421 41.457796a21.452894 21.452894 0 0 1-20.755898-16.089921c-7.025965-26.815868 0-42.207792 2.251989-46.337771l0.589997-1.018995C668.182231 797.559075 806.339551 796.916078 819.372487 797.290076c73.421639-1.286994 96.966523 24.778878 103.885489 46.928769 8.365959 26.815868-6.542968 53.631736-25.582874 66.181674a150.170261 150.170261 0 0 1-27.512865 12.28194c-18.985907 7.239964-44.944779 17.108916-62.535692 31.642844s-7.132965 36.416821-5.952971 38.883809a21.452894 21.452894 0 0 1-38.669809 18.609908c-9.169955-18.824907-17.322915-61.944695 17.269915-90.530554 23.008887-19.039906 52.82774-30.40985 74.602632-38.66981a175.377137 175.377137 0 0 0 19.146906-7.989961c5.362974-3.486983 10.029951-11.906941 8.25996-17.645913-2.09199-6.649967-17.645913-17.590913-62.589692-16.786917h-1.339994c-4.934976 0-123.94439-2.305989-216.191936 141.482303a34.59283 34.59283 0 0 0 1.286994 15.284925 21.452894 21.452894 0 0 1-20.755898 26.816868z m18.985907-41.403796l-0.697997 1.072995z m0 0z" fill="#1296db" p-id="4254"></path></svg>